<svg width="38" height="34" viewBox="0 0 38 34" fill="none" xmlns="http://www.w3.org/2000/svg">
<path d="M37.62 0H0.38C0.171 0 0 0.173864 0 0.386364V3.47727C0 3.68977 0.171 3.86364 0.38 3.86364H37.62C37.829 3.86364 38 3.68977 38 3.47727V0.386364C38 0.173864 37.829 0 37.62 0ZM37.62 30.1364H0.38C0.171 30.1364 0 30.3102 0 30.5227V33.6136C0 33.8261 0.171 34 0.38 34H37.62C37.829 34 38 33.8261 38 33.6136V30.5227C38 30.3102 37.829 30.1364 37.62 30.1364ZM37.62 15.0682H0.38C0.171 15.0682 0 15.242 0 15.4545V18.5455C0 18.758 0.171 18.9318 0.38 18.9318H37.62C37.829 18.9318 38 18.758 38 18.5455V15.4545C38 15.242 37.829 15.0682 37.62 15.0682Z" fill="#29545A"/>
</svg>
